<svg viewBox="0 0 16 16" width="16" height="16"><path d="M12.5 0c.3 0 .5.2.5.5V1h2.5c.3 0 .5.2.5.5v14c0 .3-.2.5-.5.5h-13c-.3 0-.5-.2-.5-.5v-14c0-.3.2-.5.5-.5H5V.5c0-.3.2-.5.5-.5s.5.2.5.5V1h6V.5c0-.3.2-.5.5-.5zM15 6H3v9h12V6zm-8.5 6c.3 0 .5.2.5.5s-.2.5-.5.5h-1c-.3 0-.5-.2-.5-.5s.2-.5.5-.5h1zm3 0c.3 0 .5.2.5.5s-.2.5-.5.5h-1c-.3 0-.5-.2-.5-.5s.2-.5.5-.5h1zm3 0c.3 0 .5.2.5.5s-.2.5-.5.5h-1c-.3 0-.5-.2-.5-.5s.2-.5.5-.5h1zm-6-2c.3 0 .5.2.5.5s-.2.5-.5.5h-1c-.3 0-.5-.2-.5-.5s.2-.5.5-.5h1zm3 0c.3 0 .5.2.5.5s-.2.5-.5.5h-1c-.3 0-.5-.2-.5-.5s.2-.5.5-.5h1zm3 0c.3 0 .5.2.5.5s-.2.5-.5.5h-1c-.3 0-.5-.2-.5-.5s.2-.5.5-.5h1zm-6-2c.3 0 .5.2.5.5s-.2.5-.5.5h-1c-.3 0-.5-.2-.5-.5s.2-.5.5-.5h1zm3 0c.3 0 .5.2.5.5s-.2.5-.5.5h-1c-.3 0-.5-.2-.5-.5s.2-.5.5-.5h1zm3 0c.3 0 .5.2.5.5s-.2.5-.5.5h-1c-.3 0-.5-.2-.5-.5s.2-.5.5-.5h1zM5 2H3v3h12V2h-2v.5c0 .3-.2.5-.5.5s-.5-.2-.5-.5V2H6v.5c0 .3-.2.5-.5.5S5 2.8 5 2.5V2z"></path></svg>