<svg width="16" height="16" viewBox="0 0 16 16"><path fill-rule="evenodd" d="M13 1a2 2 0 012 2v10a2 2 0 01-2 2H3a2 2 0 01-2-2V3a2 2 0 012-2h10zm0 1H3a1 1 0 00-1 1v10a1 1 0 001 1h10a1 1 0 001-1V3a1 1 0 00-1-1zm-5 8c1.219 0 2.305.413 3.24 1.096.56.408.95.82 1.162 1.107l-.804.594a3.208 3.208 0 00-.231-.265 5.294 5.294 0 00-.716-.628C9.875 11.337 8.988 11 7.999 11c-.987 0-1.874.337-2.65.904-.274.2-.513.414-.716.628a3.21 3.21 0 00-.23.265l-.805-.594c.212-.288.602-.699 1.161-1.107C5.695 10.413 6.781 10 8 10zm0-7a3 3 0 11.001 5.999A3 3 0 018 3zm0 1a2 2 0 10-.001 3.999A2 2 0 008 4z"></path></svg>