<svg width="16" height="16" viewBox="0 0 16 16"><path fill-rule="evenodd" d="M15 11.423C15 13.525 12.024 15 8.165 15 4.24 15 1 13.504 1 11.423V4l.003-.001.003-.064C1.156 2.155 4.276 1 8.149 1c3.856 0 6.777 1.169 6.85 3H15zM2 9.287v2.136C2 12.741 4.727 14 8.165 14 11.542 14 14 12.782 14 11.423l.001-2.064C12.815 10.375 10.677 11 8.165 11c-2.607 0-4.912-.66-6.166-1.713zm0-3.606v1.742C2 8.741 4.727 10 8.165 10 11.542 10 14 8.782 14 7.423l.001-1.691C12.832 6.55 10.725 7 8.15 7 5.479 7 3.229 6.528 2 5.681zM8.15 2C4.694 2 2 3.029 2 4.07 2 5.074 4.624 6 8.149 6 11.616 6 14 5.103 14 4.07 14 2.997 11.55 2 8.149 2z"></path></svg>